<mxfile host="app.diagrams.net" agent="Mozilla/5.0 (Windows NT 10.0; Win64; x64) AppleWebKit/537.36 (KHTML, like Gecko) Chrome/134.0.0.0 Safari/537.36 OPR/119.0.0.0" version="27.1.6">
  <diagram id="C5RBs43oDa-KdzZeNtuy" name="Page-1">
    <mxGraphModel dx="1372" dy="812" grid="1" gridSize="10" guides="1" tooltips="1" connect="1" arrows="1" fold="1" page="1" pageScale="1" pageWidth="827" pageHeight="1169" math="0" shadow="0">
      <root>
        <mxCell id="WIyWlLk6GJQsqaUBKTNV-0" />
        <mxCell id="WIyWlLk6GJQsqaUBKTNV-1" parent="WIyWlLk6GJQsqaUBKTNV-0" />
        <mxCell id="NjqapYtcCa1IfUgRWMrE-2" style="edgeStyle=orthogonalEdgeStyle;rounded=0;orthogonalLoop=1;jettySize=auto;html=1;" edge="1" parent="WIyWlLk6GJQsqaUBKTNV-1" source="NjqapYtcCa1IfUgRWMrE-0" target="NjqapYtcCa1IfUgRWMrE-1">
          <mxGeometry relative="1" as="geometry" />
        </mxCell>
        <mxCell id="NjqapYtcCa1IfUgRWMrE-4" style="edgeStyle=orthogonalEdgeStyle;rounded=0;orthogonalLoop=1;jettySize=auto;html=1;" edge="1" parent="WIyWlLk6GJQsqaUBKTNV-1" source="NjqapYtcCa1IfUgRWMrE-0" target="NjqapYtcCa1IfUgRWMrE-3">
          <mxGeometry relative="1" as="geometry" />
        </mxCell>
        <mxCell id="NjqapYtcCa1IfUgRWMrE-0" value="Room Management" style="rounded=1;whiteSpace=wrap;html=1;" vertex="1" parent="WIyWlLk6GJQsqaUBKTNV-1">
          <mxGeometry x="320" y="90" width="120" height="40" as="geometry" />
        </mxCell>
        <mxCell id="NjqapYtcCa1IfUgRWMrE-9" value="" style="edgeStyle=orthogonalEdgeStyle;rounded=0;orthogonalLoop=1;jettySize=auto;html=1;" edge="1" parent="WIyWlLk6GJQsqaUBKTNV-1" source="NjqapYtcCa1IfUgRWMrE-35" target="NjqapYtcCa1IfUgRWMrE-8">
          <mxGeometry relative="1" as="geometry" />
        </mxCell>
        <mxCell id="NjqapYtcCa1IfUgRWMrE-32" style="edgeStyle=orthogonalEdgeStyle;rounded=0;orthogonalLoop=1;jettySize=auto;html=1;exitX=0;exitY=0.5;exitDx=0;exitDy=0;entryX=0;entryY=0.5;entryDx=0;entryDy=0;endArrow=none;startFill=0;" edge="1" parent="WIyWlLk6GJQsqaUBKTNV-1" source="NjqapYtcCa1IfUgRWMrE-1" target="NjqapYtcCa1IfUgRWMrE-0">
          <mxGeometry relative="1" as="geometry">
            <mxPoint x="90" y="80" as="targetPoint" />
          </mxGeometry>
        </mxCell>
        <mxCell id="NjqapYtcCa1IfUgRWMrE-1" value="Click On Edit" style="rhombus;whiteSpace=wrap;html=1;" vertex="1" parent="WIyWlLk6GJQsqaUBKTNV-1">
          <mxGeometry x="200" y="250" width="80" height="80" as="geometry" />
        </mxCell>
        <mxCell id="NjqapYtcCa1IfUgRWMrE-16" value="" style="edgeStyle=orthogonalEdgeStyle;rounded=0;orthogonalLoop=1;jettySize=auto;html=1;" edge="1" parent="WIyWlLk6GJQsqaUBKTNV-1" source="NjqapYtcCa1IfUgRWMrE-3" target="NjqapYtcCa1IfUgRWMrE-5">
          <mxGeometry relative="1" as="geometry" />
        </mxCell>
        <mxCell id="NjqapYtcCa1IfUgRWMrE-17" value="Yes" style="edgeLabel;html=1;align=center;verticalAlign=middle;resizable=0;points=[];" vertex="1" connectable="0" parent="NjqapYtcCa1IfUgRWMrE-16">
          <mxGeometry x="-0.2" relative="1" as="geometry">
            <mxPoint as="offset" />
          </mxGeometry>
        </mxCell>
        <mxCell id="NjqapYtcCa1IfUgRWMrE-28" style="edgeStyle=orthogonalEdgeStyle;rounded=0;orthogonalLoop=1;jettySize=auto;html=1;exitX=1;exitY=0.5;exitDx=0;exitDy=0;endArrow=none;startFill=0;" edge="1" parent="WIyWlLk6GJQsqaUBKTNV-1" source="NjqapYtcCa1IfUgRWMrE-3">
          <mxGeometry relative="1" as="geometry">
            <mxPoint x="650" y="110" as="targetPoint" />
          </mxGeometry>
        </mxCell>
        <mxCell id="NjqapYtcCa1IfUgRWMrE-29" value="No" style="edgeLabel;html=1;align=center;verticalAlign=middle;resizable=0;points=[];" vertex="1" connectable="0" parent="NjqapYtcCa1IfUgRWMrE-28">
          <mxGeometry x="0.0716" y="2" relative="1" as="geometry">
            <mxPoint as="offset" />
          </mxGeometry>
        </mxCell>
        <mxCell id="NjqapYtcCa1IfUgRWMrE-3" value="Click On Delete" style="rhombus;whiteSpace=wrap;html=1;" vertex="1" parent="WIyWlLk6GJQsqaUBKTNV-1">
          <mxGeometry x="520" y="250" width="80" height="80" as="geometry" />
        </mxCell>
        <mxCell id="NjqapYtcCa1IfUgRWMrE-11" value="" style="edgeStyle=orthogonalEdgeStyle;rounded=0;orthogonalLoop=1;jettySize=auto;html=1;" edge="1" parent="WIyWlLk6GJQsqaUBKTNV-1" source="NjqapYtcCa1IfUgRWMrE-5" target="NjqapYtcCa1IfUgRWMrE-10">
          <mxGeometry relative="1" as="geometry" />
        </mxCell>
        <mxCell id="NjqapYtcCa1IfUgRWMrE-12" value="Yes" style="edgeLabel;html=1;align=center;verticalAlign=middle;resizable=0;points=[];" vertex="1" connectable="0" parent="NjqapYtcCa1IfUgRWMrE-11">
          <mxGeometry x="-0.45" y="-4" relative="1" as="geometry">
            <mxPoint as="offset" />
          </mxGeometry>
        </mxCell>
        <mxCell id="NjqapYtcCa1IfUgRWMrE-19" style="edgeStyle=orthogonalEdgeStyle;rounded=0;orthogonalLoop=1;jettySize=auto;html=1;" edge="1" parent="WIyWlLk6GJQsqaUBKTNV-1" source="NjqapYtcCa1IfUgRWMrE-5" target="NjqapYtcCa1IfUgRWMrE-6">
          <mxGeometry relative="1" as="geometry" />
        </mxCell>
        <mxCell id="NjqapYtcCa1IfUgRWMrE-20" value="No" style="edgeLabel;html=1;align=center;verticalAlign=middle;resizable=0;points=[];" vertex="1" connectable="0" parent="NjqapYtcCa1IfUgRWMrE-19">
          <mxGeometry x="-0.8235" y="4" relative="1" as="geometry">
            <mxPoint as="offset" />
          </mxGeometry>
        </mxCell>
        <mxCell id="NjqapYtcCa1IfUgRWMrE-5" value="Confirm" style="rhombus;whiteSpace=wrap;html=1;" vertex="1" parent="WIyWlLk6GJQsqaUBKTNV-1">
          <mxGeometry x="520" y="370" width="80" height="80" as="geometry" />
        </mxCell>
        <mxCell id="NjqapYtcCa1IfUgRWMrE-6" value="Go to desiredPage" style="ellipse;whiteSpace=wrap;html=1;" vertex="1" parent="WIyWlLk6GJQsqaUBKTNV-1">
          <mxGeometry x="360" y="820" width="120" height="40" as="geometry" />
        </mxCell>
        <mxCell id="NjqapYtcCa1IfUgRWMrE-7" value="desiredPage = currentPage&lt;div&gt;(RoomPage)&lt;/div&gt;" style="text;html=1;align=center;verticalAlign=middle;whiteSpace=wrap;rounded=0;" vertex="1" parent="WIyWlLk6GJQsqaUBKTNV-1">
          <mxGeometry x="340" y="20" width="150" height="30" as="geometry" />
        </mxCell>
        <mxCell id="NjqapYtcCa1IfUgRWMrE-41" style="edgeStyle=orthogonalEdgeStyle;rounded=0;orthogonalLoop=1;jettySize=auto;html=1;" edge="1" parent="WIyWlLk6GJQsqaUBKTNV-1" source="NjqapYtcCa1IfUgRWMrE-8" target="NjqapYtcCa1IfUgRWMrE-39">
          <mxGeometry relative="1" as="geometry" />
        </mxCell>
        <mxCell id="NjqapYtcCa1IfUgRWMrE-8" value="Room Requirement Check" style="shape=process;whiteSpace=wrap;html=1;backgroundOutline=1;" vertex="1" parent="WIyWlLk6GJQsqaUBKTNV-1">
          <mxGeometry x="180" y="530" width="120" height="60" as="geometry" />
        </mxCell>
        <mxCell id="NjqapYtcCa1IfUgRWMrE-15" value="" style="edgeStyle=orthogonalEdgeStyle;rounded=0;orthogonalLoop=1;jettySize=auto;html=1;" edge="1" parent="WIyWlLk6GJQsqaUBKTNV-1" source="NjqapYtcCa1IfUgRWMrE-10" target="NjqapYtcCa1IfUgRWMrE-14">
          <mxGeometry relative="1" as="geometry" />
        </mxCell>
        <mxCell id="NjqapYtcCa1IfUgRWMrE-22" value="Yes" style="edgeLabel;html=1;align=center;verticalAlign=middle;resizable=0;points=[];" vertex="1" connectable="0" parent="NjqapYtcCa1IfUgRWMrE-15">
          <mxGeometry x="0.7714" y="1" relative="1" as="geometry">
            <mxPoint as="offset" />
          </mxGeometry>
        </mxCell>
        <mxCell id="NjqapYtcCa1IfUgRWMrE-10" value="Set desiredPage = homePage" style="rounded=1;whiteSpace=wrap;html=1;" vertex="1" parent="WIyWlLk6GJQsqaUBKTNV-1">
          <mxGeometry x="500" y="490" width="120" height="40" as="geometry" />
        </mxCell>
        <mxCell id="NjqapYtcCa1IfUgRWMrE-13" value="Get Room Info" style="shape=parallelogram;perimeter=parallelogramPerimeter;whiteSpace=wrap;html=1;fixedSize=1;" vertex="1" parent="WIyWlLk6GJQsqaUBKTNV-1">
          <mxGeometry x="480" y="564.5" width="180" height="40" as="geometry" />
        </mxCell>
        <mxCell id="NjqapYtcCa1IfUgRWMrE-18" style="edgeStyle=orthogonalEdgeStyle;rounded=0;orthogonalLoop=1;jettySize=auto;html=1;" edge="1" parent="WIyWlLk6GJQsqaUBKTNV-1" source="NjqapYtcCa1IfUgRWMrE-14" target="NjqapYtcCa1IfUgRWMrE-6">
          <mxGeometry relative="1" as="geometry" />
        </mxCell>
        <mxCell id="NjqapYtcCa1IfUgRWMrE-14" value="Remove room from BDD" style="rounded=1;whiteSpace=wrap;html=1;" vertex="1" parent="WIyWlLk6GJQsqaUBKTNV-1">
          <mxGeometry x="500" y="810" width="120" height="60" as="geometry" />
        </mxCell>
        <mxCell id="NjqapYtcCa1IfUgRWMrE-23" style="edgeStyle=orthogonalEdgeStyle;rounded=0;orthogonalLoop=1;jettySize=auto;html=1;exitX=1;exitY=0.5;exitDx=0;exitDy=0;entryX=0.5;entryY=1;entryDx=0;entryDy=0;" edge="1" parent="WIyWlLk6GJQsqaUBKTNV-1" source="NjqapYtcCa1IfUgRWMrE-21" target="NjqapYtcCa1IfUgRWMrE-25">
          <mxGeometry relative="1" as="geometry">
            <mxPoint x="720" y="680" as="targetPoint" />
          </mxGeometry>
        </mxCell>
        <mxCell id="NjqapYtcCa1IfUgRWMrE-27" value="No" style="edgeLabel;html=1;align=center;verticalAlign=middle;resizable=0;points=[];" vertex="1" connectable="0" parent="NjqapYtcCa1IfUgRWMrE-23">
          <mxGeometry x="-0.6989" y="-5" relative="1" as="geometry">
            <mxPoint as="offset" />
          </mxGeometry>
        </mxCell>
        <mxCell id="NjqapYtcCa1IfUgRWMrE-21" value="Room Exist" style="rhombus;whiteSpace=wrap;html=1;" vertex="1" parent="WIyWlLk6GJQsqaUBKTNV-1">
          <mxGeometry x="520" y="640" width="80" height="80" as="geometry" />
        </mxCell>
        <mxCell id="NjqapYtcCa1IfUgRWMrE-26" style="edgeStyle=orthogonalEdgeStyle;rounded=0;orthogonalLoop=1;jettySize=auto;html=1;exitX=0.5;exitY=0;exitDx=0;exitDy=0;entryX=1;entryY=0.5;entryDx=0;entryDy=0;endArrow=none;startFill=0;" edge="1" parent="WIyWlLk6GJQsqaUBKTNV-1" source="NjqapYtcCa1IfUgRWMrE-25" target="NjqapYtcCa1IfUgRWMrE-0">
          <mxGeometry relative="1" as="geometry">
            <mxPoint x="730" y="160" as="targetPoint" />
          </mxGeometry>
        </mxCell>
        <mxCell id="NjqapYtcCa1IfUgRWMrE-25" value="Show error message" style="rounded=1;whiteSpace=wrap;html=1;" vertex="1" parent="WIyWlLk6GJQsqaUBKTNV-1">
          <mxGeometry x="670" y="450" width="120" height="34.5" as="geometry" />
        </mxCell>
        <mxCell id="NjqapYtcCa1IfUgRWMrE-33" value="" style="edgeStyle=orthogonalEdgeStyle;rounded=0;orthogonalLoop=1;jettySize=auto;html=1;" edge="1" parent="WIyWlLk6GJQsqaUBKTNV-1" source="NjqapYtcCa1IfUgRWMrE-1" target="NjqapYtcCa1IfUgRWMrE-35">
          <mxGeometry relative="1" as="geometry">
            <mxPoint x="240" y="330" as="sourcePoint" />
            <mxPoint x="240" y="605" as="targetPoint" />
          </mxGeometry>
        </mxCell>
        <mxCell id="NjqapYtcCa1IfUgRWMrE-36" value="Yes" style="edgeLabel;html=1;align=center;verticalAlign=middle;resizable=0;points=[];" vertex="1" connectable="0" parent="NjqapYtcCa1IfUgRWMrE-33">
          <mxGeometry x="-0.5455" y="4" relative="1" as="geometry">
            <mxPoint x="-4" y="5" as="offset" />
          </mxGeometry>
        </mxCell>
        <mxCell id="NjqapYtcCa1IfUgRWMrE-35" value="Go to room edit page" style="rounded=1;whiteSpace=wrap;html=1;" vertex="1" parent="WIyWlLk6GJQsqaUBKTNV-1">
          <mxGeometry x="180" y="420" width="120" height="40" as="geometry" />
        </mxCell>
        <mxCell id="NjqapYtcCa1IfUgRWMrE-42" value="" style="edgeStyle=orthogonalEdgeStyle;rounded=0;orthogonalLoop=1;jettySize=auto;html=1;" edge="1" parent="WIyWlLk6GJQsqaUBKTNV-1" source="NjqapYtcCa1IfUgRWMrE-39" target="NjqapYtcCa1IfUgRWMrE-40">
          <mxGeometry relative="1" as="geometry" />
        </mxCell>
        <mxCell id="NjqapYtcCa1IfUgRWMrE-39" value="Get Room Info" style="shape=parallelogram;perimeter=parallelogramPerimeter;whiteSpace=wrap;html=1;fixedSize=1;" vertex="1" parent="WIyWlLk6GJQsqaUBKTNV-1">
          <mxGeometry x="170" y="670" width="140" height="40" as="geometry" />
        </mxCell>
        <mxCell id="NjqapYtcCa1IfUgRWMrE-43" style="edgeStyle=orthogonalEdgeStyle;rounded=0;orthogonalLoop=1;jettySize=auto;html=1;entryX=0;entryY=0.5;entryDx=0;entryDy=0;exitX=1;exitY=0.5;exitDx=0;exitDy=0;" edge="1" parent="WIyWlLk6GJQsqaUBKTNV-1" source="NjqapYtcCa1IfUgRWMrE-40" target="NjqapYtcCa1IfUgRWMrE-6">
          <mxGeometry relative="1" as="geometry" />
        </mxCell>
        <mxCell id="NjqapYtcCa1IfUgRWMrE-44" value="Yes" style="edgeLabel;html=1;align=center;verticalAlign=middle;resizable=0;points=[];" vertex="1" connectable="0" parent="NjqapYtcCa1IfUgRWMrE-43">
          <mxGeometry x="0.0615" y="-2" relative="1" as="geometry">
            <mxPoint as="offset" />
          </mxGeometry>
        </mxCell>
        <mxCell id="NjqapYtcCa1IfUgRWMrE-45" style="edgeStyle=orthogonalEdgeStyle;rounded=0;orthogonalLoop=1;jettySize=auto;html=1;entryX=0.5;entryY=1;entryDx=0;entryDy=0;exitX=0.5;exitY=1;exitDx=0;exitDy=0;" edge="1" parent="WIyWlLk6GJQsqaUBKTNV-1" source="NjqapYtcCa1IfUgRWMrE-40" target="NjqapYtcCa1IfUgRWMrE-25">
          <mxGeometry relative="1" as="geometry">
            <Array as="points">
              <mxPoint x="240" y="930" />
              <mxPoint x="730" y="930" />
            </Array>
          </mxGeometry>
        </mxCell>
        <mxCell id="NjqapYtcCa1IfUgRWMrE-46" value="No" style="edgeLabel;html=1;align=center;verticalAlign=middle;resizable=0;points=[];" vertex="1" connectable="0" parent="NjqapYtcCa1IfUgRWMrE-45">
          <mxGeometry x="-0.9073" y="-1" relative="1" as="geometry">
            <mxPoint as="offset" />
          </mxGeometry>
        </mxCell>
        <mxCell id="NjqapYtcCa1IfUgRWMrE-40" value="Room Exist" style="rhombus;whiteSpace=wrap;html=1;" vertex="1" parent="WIyWlLk6GJQsqaUBKTNV-1">
          <mxGeometry x="200" y="750" width="80" height="80" as="geometry" />
        </mxCell>
      </root>
    </mxGraphModel>
  </diagram>
</mxfile>
